<?xml version="1.0" encoding="UTF-8" standalone="no"?>
<svg
   version="1.1"
   width="16"
   height="16"
   id="svg1"
   xmlns="http://www.w3.org/2000/svg"
   xmlns:svg="http://www.w3.org/2000/svg">
  <defs
     id="defs1" />
  <path
     d="m 6.5284072,1.0063217 c 0.035063,-2.216e-4 0.070126,-3.989e-4 0.1062512,-6.338e-4 0.115138,-5.896e-4 0.2302698,-7.137e-4 0.3454089,-7.802e-4 0.080695,-1.773e-4 0.16139,-3.989e-4 0.2420848,-6.294e-4 0.168935,-3.546e-4 0.3378672,-4.92e-4 0.5068025,-4.522e-4 0.1939963,3.77e-5 0.3879817,-6.205e-4 0.5819754,-0.0016 0.1879983,-9.22e-4 0.3759915,-0.00113 0.5639927,-0.0011 0.079327,-8.86e-5 0.1586539,-3.546e-4 0.2379789,-8.289e-4 0.6522642,-0.003613 1.2352314,0.018983 1.7424214,0.4842151 0.255806,0.2737037 0.47686,0.6506998 0.47407,1.035474 -0.0097,0.1786724 -0.02887,0.3565988 -0.04634,0.5346435 -0.190195,2.0797553 0.125609,3.5831926 1.106912,5.4163576 0.01226,0.022929 0.02452,0.045858 0.03715,0.069483 0.276029,0.5154494 0.559992,1.0262018 0.857882,1.5293456 0.01724,0.02927 0.03448,0.05854 0.05223,0.08869 0.01511,0.02541 0.03021,0.05081 0.04578,0.07699 0.03199,0.06143 0.03199,0.06143 0.03199,0.123726 -1.561014,0 -3.122028,0 -4.7303454,0 0.02566,1.037971 0.02566,1.037971 0.058876,2.075706 0.020822,1.004577 -0.1682047,1.718262 -0.71241,2.565073 -0.02054,0 -0.041079,0 -0.062241,0 -0.6573501,-1.022869 -0.7385238,-1.853715 -0.6943804,-3.056218 0.013479,-0.522905 0.026958,-1.04581 0.040846,-1.584561 -1.561014,0 -3.1220279,0 -4.7303452,0 0.044123,-0.132479 0.076469,-0.22085 0.1451303,-0.33555 0.0168,-0.028392 0.0336,-0.056784 0.050909,-0.086037 0.018351,-0.030743 0.036702,-0.061486 0.055609,-0.093161 0.279535,-0.4757209 0.5477003,-0.9572591 0.8084,-1.4435672 0.011794,-0.021976 0.023587,-0.043952 0.035738,-0.066594 C 4.6502359,6.5235806 4.8992689,5.0075966 4.7056071,2.9584594 4.6582311,2.4516583 4.6941173,2.0665446 5.0136287,1.6487569 5.4219509,1.1707879 5.9148766,1.0057876 6.5284072,1.0063217 Z"
     fill="#536471"
     id="path1"
     style="stroke-width:0.0311335" />
</svg>
