<?xml version="1.0" encoding="UTF-8" standalone="no"?>
<svg
   viewBox="0 0 18.749999 18.749999"
   aria-hidden="true"
   class="r-4qtqp9 r-yyyyoo r-1xvli5t r-dnmrzs r-bnwqim r-lrvibr r-m6rgpd r-14j79pv r-1gs4q39"
   version="1.1"
   id="svg1"
   width="18.75"
   height="18.75"
   xmlns="http://www.w3.org/2000/svg"
   xmlns:svg="http://www.w3.org/2000/svg">
  <defs
     id="defs1" />
  <g
     id="g1"
     style="fill:#536471;fill-opacity:1"
     transform="matrix(0.77777778,0,0,0.78111113,0.04166664,0.00166644)">
    <path
       d="M 7,4 V 3 h 2 v 1 h 6 V 3 h 2 v 1 h 1.5 C 19.89,4 21,5.12 21,6.5 v 12 C 21,19.88 19.89,21 18.5,21 H 5.5 C 4.12,21 3,19.88 3,18.5 V 6.5 C 3,5.12 4.12,4 5.5,4 Z M 7,6 H 5.5 C 5.23,6 5,6.22 5,6.5 v 12 C 5,18.78 5.23,19 5.5,19 h 13 C 18.78,19 19,18.78 19,18.5 V 6.5 C 19,6.22 18.78,6 18.5,6 H 17 V 7 H 15 V 6 H 9 V 7 H 7 Z m 0,6 H 9 V 10 H 7 Z m 0,4 H 9 V 14 H 7 Z m 4,-4 h 2 v -2 h -2 z m 0,4 h 2 v -2 h -2 z m 4,-4 h 2 v -2 h -2 z"
       id="path1"
       style="fill:#536471;fill-opacity:1" />
  </g>
</svg>
