<?xml version="1.0" encoding="UTF-8" standalone="no"?>
<!-- Created with Inkscape (http://www.inkscape.org/) -->

<svg
   width="24"
   height="24"
   viewBox="0 0 69.955757 130.38528"
   version="1.1"
   id="svg1"
   xml:space="preserve"
   xmlns="http://www.w3.org/2000/svg"
   xmlns:svg="http://www.w3.org/2000/svg"><defs
     id="defs1" /><path
     style="fill:#020202;stroke:none"
     d="m 106.97852,159.61523 c -1.96588,0.008 -3.90978,0.78536 -5.75586,2.67188 -7.71687,7.88586 2.70048,16.15947 7.96289,21.42187 l 32.80859,32.8086 c 6.20706,6.20707 12.18457,13.0205 21.66992,13.05273 9.48535,-0.0322 15.46286,-6.84566 21.66992,-13.05273 l 32.8086,-32.8086 c 5.26241,-5.2624 15.6778,-13.53601 7.96094,-21.42187 -8.43926,-8.6241 -18.92472,5.92667 -24.18946,11.19141 -9.11858,9.11858 -18.14519,18.33375 -27.16601,27.51757 -2.55924,2.60548 -5.12604,5.22381 -7.75977,7.75391 -0.90388,0.86831 -2.06551,1.43555 -3.32422,1.43555 h -0.002 c -1.25871,0 -2.42034,-0.56724 -3.32422,-1.43555 -2.63373,-2.5301 -5.20053,-5.14843 -7.75977,-7.75391 -9.02082,-9.18382 -18.04548,-18.39899 -27.16406,-27.51757 -4.11308,-4.11308 -11.41457,-13.89342 -18.43554,-13.86329 z"
     id="path2"
     transform="rotate(-90,34.620665,194.23522)" /></svg>
