<?xml version="1.0" encoding="UTF-8" standalone="no"?>
<svg
   viewBox="0 0 18.749999 18.75"
   aria-hidden="true"
   class="r-4qtqp9 r-yyyyoo r-dnmrzs r-bnwqim r-lrvibr r-m6rgpd r-1xvli5t r-1hdv0qi"
   version="1.1"
   id="svg1"
   width="18.75"
   height="18.75"
   xmlns="http://www.w3.org/2000/svg"
   xmlns:svg="http://www.w3.org/2000/svg">
  <defs
     id="defs1" />
  <g
     id="g1"
     transform="matrix(0.78146343,0,0,0.78121829,-0.00334262,0.11756326)"
     style="fill:#536471;fill-opacity:1">
    <path
       d="m 1.751,10 c 0,-4.42 3.584,-8 8.005,-8 h 4.366 c 4.49,0 8.129,3.64 8.129,8.13 0,2.96 -1.607,5.68 -4.196,7.11 L 10.001,21.7 V 18.01 H 9.934 C 5.444,18.11 1.751,14.5 1.751,10 Z M 9.756,4 c -3.317,0 -6.005,2.69 -6.005,6 0,3.37 2.77,6.08 6.138,6.01 L 10.24,16 h 1.761 v 2.3 l 5.087,-2.81 c 1.951,-1.08 3.163,-3.13 3.163,-5.36 C 20.251,6.74 17.507,4 14.122,4 Z"
       id="path1"
       style="fill:#536471;fill-opacity:1" />
  </g>
</svg>
