<?xml version="1.0" encoding="UTF-8" standalone="no"?>
<svg
   viewBox="0 0 22.5 22.5"
   aria-hidden="true"
   class="r-4qtqp9 r-yyyyoo r-dnmrzs r-bnwqim r-lrvibr r-m6rgpd r-1xvli5t r-1hdv0qi"
   version="1.1"
   id="svg1"
   width="22.5"
   height="22.5"
   xmlns="http://www.w3.org/2000/svg"
   xmlns:svg="http://www.w3.org/2000/svg">
  <defs
     id="defs1" />
  <g
     id="g1"
     transform="matrix(0.93747103,0,0,0.93724179,3.4764e-4,-0.30703666)"
     style="fill:#ffffff;fill-opacity:1">
    <path
       d="M 16.697,5.5 C 15.475,5.44 14.018,6.01 12.807,7.66 L 12.002,8.75 11.196,7.66 C 9.984,6.01 8.526,5.44 7.304,5.5 6.061,5.57 4.955,6.28 4.394,7.41 c -0.552,1.12 -0.633,2.78 0.479,4.82 1.074,1.97 3.257,4.27 7.129,6.61 3.87,-2.34 6.052,-4.64 7.126,-6.61 1.111,-2.04 1.03,-3.7 0.477,-4.82 C 19.044,6.28 17.939,5.57 16.697,5.5 Z m 4.187,7.69 c -1.351,2.48 -4.001,5.12 -8.379,7.67 l -0.503,0.3 -0.504,-0.3 C 7.119,18.31 4.469,15.67 3.116,13.19 1.756,10.69 1.706,8.33 2.602,6.52 3.489,4.73 5.249,3.61 7.203,3.51 c 1.651,-0.09 3.368,0.56 4.798,2.01 1.429,-1.45 3.146,-2.1 4.796,-2.01 1.954,0.1 3.714,1.22 4.601,3.01 0.896,1.81 0.846,4.17 -0.514,6.67 z"
       id="path1"
       style="fill:#ffffff;fill-opacity:1" />
  </g>
</svg>
