<?xml version="1.0" encoding="UTF-8" standalone="no"?>
<svg
   viewBox="0 0 18.75 18.75"
   aria-hidden="true"
   class="r-4qtqp9 r-yyyyoo r-1xvli5t r-dnmrzs r-bnwqim r-lrvibr r-m6rgpd r-14j79pv r-1gs4q39"
   version="1.1"
   id="svg1"
   width="18.75"
   height="18.75"
   xmlns="http://www.w3.org/2000/svg"
   xmlns:svg="http://www.w3.org/2000/svg">
  <defs
     id="defs1" />
  <g
     id="g1">
    <path
       d="m 9.3749999,5.3905538 c -1.5076706,0 -2.7341176,1.2263439 -2.7341176,2.7338877 0,1.5075438 1.226447,2.7338875 2.7341176,2.7338875 1.5076701,0 2.7341181,-1.2263437 2.7341181,-2.7338875 0,-1.5075438 -1.226448,-2.7338877 -2.7341181,-2.7338877 z m 0,3.9055539 c -0.646033,0 -1.1717647,-0.5256876 -1.1717647,-1.1716662 0,-0.6459786 0.5257317,-1.1716661 1.1717647,-1.1716661 0.6460331,0 1.1717651,0.5256875 1.1717651,1.1716661 0,0.6459786 -0.525732,1.1716662 -1.1717651,1.1716662 z m 0,-7.8111077 C 5.7136258,1.485 2.735,4.4633754 2.735,8.1244415 c 0,4.6608875 5.9533458,8.6828275 6.2064469,8.8515475 L 9.3749999,17.265 9.8085528,16.975989 C 10.061654,16.807269 16.015,12.785329 16.015,8.1244415 16.015,4.4633754 13.036374,1.485 9.3749999,1.485 Z m 0,13.880338 C 8.0743411,14.39598 4.2973529,11.306687 4.2973529,8.1244415 c 0,-2.799501 2.2779106,-5.07722 5.077647,-5.07722 2.7997361,0 5.0776471,2.277719 5.0776471,5.07722 0,3.1814645 -3.776988,6.2707575 -5.0776471,7.2408965 z"
       id="path1"
       style="fill:#536471;fill-opacity:1;stroke-width:0.781144" />
  </g>
</svg>
