<?xml version="1.0" encoding="UTF-8" standalone="no"?>
<svg
   viewBox="0 0 18.75 18.75"
   aria-hidden="true"
   class="r-4qtqp9 r-yyyyoo r-1xvli5t r-dnmrzs r-bnwqim r-lrvibr r-m6rgpd r-14j79pv r-1gs4q39"
   version="1.1"
   id="svg1"
   width="18.75"
   height="18.75"
   xmlns="http://www.w3.org/2000/svg"
   xmlns:svg="http://www.w3.org/2000/svg">
  <defs
     id="defs1" />
  <g
     id="g1"
     transform="matrix(0.78148052,0,0,0.78148052,-0.00276624,-0.00276624)"
     style="fill:#536471;fill-opacity:1">
    <path
       d="m 18.36,5.64 c -1.95,-1.96 -5.11,-1.96 -7.07,0 L 9.88,7.05 8.46,5.64 9.88,4.22 c 2.73,-2.73 7.16,-2.73 9.9,0 2.73,2.74 2.73,7.17 0,9.9 l -1.42,1.42 -1.41,-1.42 1.41,-1.41 c 1.96,-1.96 1.96,-5.12 0,-7.07 z M 16.24,9.17 9.17,16.24 7.76,14.83 14.83,7.76 Z M 4.22,9.88 5.64,8.46 7.05,9.88 5.64,11.29 c -1.96,1.96 -1.96,5.12 0,7.07 1.95,1.96 5.11,1.96 7.07,0 l 1.41,-1.41 1.42,1.41 -1.42,1.42 c -2.73,2.73 -7.16,2.73 -9.9,0 -2.73,-2.74 -2.73,-7.17 0,-9.9 z"
       id="path1"
       style="fill:#536471;fill-opacity:1" />
  </g>
</svg>
