<?xml version="1.0" encoding="UTF-8" standalone="no"?>
<svg
   viewBox="0 0 18.75 18.750001"
   aria-hidden="true"
   class="r-4qtqp9 r-yyyyoo r-dnmrzs r-bnwqim r-lrvibr r-m6rgpd r-1xvli5t r-1hdv0qi"
   version="1.1"
   id="svg1"
   width="18.75"
   height="18.75"
   xmlns="http://www.w3.org/2000/svg"
   xmlns:svg="http://www.w3.org/2000/svg">
  <defs
     id="defs1" />
  <g
     id="g1"
     transform="matrix(0.78109283,0,0,0.78140392,0.00188604,-0.00184704)"
     style="fill:#536471;fill-opacity:1">
    <path
       d="M 4.5,3.88 8.932,8.02 7.568,9.48 5.5,7.55 V 16 c 0,1.1 0.896,2 2,2 H 13 v 2 H 7.5 c -2.209,0 -4,-1.79 -4,-4 V 7.55 L 1.432,9.48 0.068,8.02 Z M 16.5,6 H 11 V 4 h 5.5 c 2.209,0 4,1.79 4,4 v 8.45 l 2.068,-1.93 1.364,1.46 -4.432,4.14 -4.432,-4.14 1.364,-1.46 2.068,1.93 V 8 c 0,-1.1 -0.896,-2 -2,-2 z"
       id="path1"
       style="fill:#536471;fill-opacity:1" />
  </g>
</svg>
