<?xml version="1.0" encoding="UTF-8"?>
<svg version="1.1" xmlns="http://www.w3.org/2000/svg" viewBox="0 0 512 512" width="17" height="17">
<path d="M0 0 C10.83834486 8.51877484 16.7298559 21.6575493 19 35 C20.20698924 48.39293827 15.70585284 61.15051184 7.87890625 71.91796875 C-0.33641217 81.69810972 -11.394525 88.49991412 -24 91 C-25.16015625 91.24556641 -25.16015625 91.24556641 -26.34375 91.49609375 C-39.82545896 93.61902519 -53.12993852 88.05321863 -64.00390625 80.49609375 C-73.8805049 73.09347676 -81.17282456 61.3665385 -83.71484375 49.2734375 C-85.72773403 33.22546293 -81.49918051 18.78044383 -71.67578125 5.96875 C-52.21305446 -15.62493228 -23.02600141 -15.76343992 0 0 Z " fill="#000000" transform="translate(292,216)"/>
<path d="M0 0 C10.83834486 8.51877484 16.7298559 21.6575493 19 35 C20.20698924 48.39293827 15.70585284 61.15051184 7.87890625 71.91796875 C-0.33641217 81.69810972 -11.394525 88.49991412 -24 91 C-25.16015625 91.24556641 -25.16015625 91.24556641 -26.34375 91.49609375 C-39.697054 93.59880558 -53.0854791 88.14288762 -63.87109375 80.62109375 C-74.70036001 72.37495522 -81.35043084 60.32283362 -84 47 C-85.13339652 32.74893233 -81.85405843 19.79876152 -73.03125 8.47265625 C-53.25049422 -14.68615114 -24.79667629 -16.97563159 0 0 Z " fill="#000000" transform="translate(96,216)"/>
<path d="M0 0 C8.87246708 8.19738806 15.37450192 21.03787516 16.25 33.16015625 C16.48857373 49.3831697 11.70161882 62.26394636 0.4453125 74.0625 C-8.89636404 82.96295729 -21.32852979 88.7823884 -34.37890625 89.47265625 C-48.83753025 88.77056829 -62.39316157 82.85874145 -72.76953125 72.7890625 C-82.06313187 62.39818525 -87.37126296 49.13446857 -87.1640625 35.1484375 C-86.04845471 20.33564512 -79.0642785 7.08484991 -67.953125 -2.65234375 C-60.72159457 -7.90158408 -52.71821282 -11.79788575 -43.953125 -13.65234375 C-42.220625 -14.02359375 -42.220625 -14.02359375 -40.453125 -14.40234375 C-25.15496081 -15.49506976 -11.51414533 -9.74096695 0 0 Z " fill="#000000" transform="translate(483.953125,218.65234375)"/>
</svg>
